<svg width="16" height="16" viewBox="0 0 16 16" fill="none" xmlns="http://www.w3.org/2000/svg">
<g clip-path="url(#clip0_172_30)">
<path d="M0.660217 8.00708C0.662287 8.13958 0.716862 8.26583 0.811955 8.35812C0.907047 8.4504 1.03488 8.50117 1.16738 8.49927L13.627 8.49927L12.1472 9.97909C12.0992 10.0252 12.0609 10.0803 12.0345 10.1414C12.0081 10.2025 11.9942 10.2682 11.9935 10.3347C11.9928 10.4012 12.0054 10.4672 12.0306 10.5288C12.0557 10.5904 12.0929 10.6463 12.1399 10.6934C12.187 10.7404 12.2429 10.7776 12.3045 10.8027C12.3661 10.8279 12.4321 10.8405 12.4986 10.8398C12.5651 10.8391 12.6308 10.8252 12.6919 10.7988C12.753 10.7724 12.8082 10.7341 12.8542 10.6861L15.1876 8.35279C15.2813 8.25902 15.3339 8.13186 15.3339 7.99927C15.3339 7.86669 15.2813 7.73953 15.1876 7.64576L12.8542 5.31242C12.8082 5.26444 12.753 5.22613 12.6919 5.19973C12.6308 5.17334 12.5651 5.1594 12.4986 5.15873C12.4321 5.15805 12.3661 5.17065 12.3045 5.1958C12.2429 5.22094 12.187 5.25812 12.1399 5.30516C12.0929 5.3522 12.0557 5.40815 12.0306 5.46974C12.0054 5.53133 11.9928 5.59731 11.9935 5.66383C11.9942 5.73035 12.0081 5.79607 12.0345 5.85713C12.0609 5.9182 12.0992 5.97338 12.1472 6.01945L13.627 7.49927L1.16738 7.49927C1.10046 7.49831 1.03402 7.5108 0.972015 7.53598C0.910007 7.56117 0.853686 7.59855 0.806391 7.64591C0.759095 7.69326 0.721788 7.74963 0.696679 7.81167C0.67157 7.87371 0.659171 7.94016 0.660217 8.00708Z" fill="white" stroke="white" stroke-width="0.4"/>
</g>
<defs>
<clipPath id="clip0_172_30">
<rect width="16" height="16" fill="white" transform="translate(0 16) rotate(-90)"/>
</clipPath>
</defs>
</svg>
