<svg width="10" height="10" viewBox="0 0 10 10" fill="none" xmlns="http://www.w3.org/2000/svg">
<path d="M9.81496 9.80008V6.28408C9.81496 4.55608 9.43537 3.23608 7.37823 3.23608C6.3864 3.23608 5.72518 3.76408 5.45579 4.26808H5.4313V3.39208H3.48438V9.80008H5.51702V6.62008C5.51702 5.78008 5.6762 4.97608 6.72926 4.97608C7.77007 4.97608 7.78231 5.92408 7.78231 6.66808V9.78808H9.81496V9.80008Z" fill="#263542"/>
<path d="M0.177734 3.39197H2.21038V9.79997H0.177734V3.39197Z" fill="#263542"/>
<path d="M1.19504 0.199951C0.546059 0.199951 0.0195312 0.715951 0.0195312 1.35195C0.0195312 1.98795 0.546059 2.51595 1.19504 2.51595C1.84401 2.51595 2.37054 1.98795 2.37054 1.35195C2.37054 0.715951 1.84401 0.199951 1.19504 0.199951Z" fill="#263542"/>
</svg>
