<svg width="10" height="10" viewBox="0 0 10 10" fill="none" xmlns="http://www.w3.org/2000/svg">
<g clip-path="url(#clip0_283_8051)">
<path d="M9.30763 8.82067L6.09125 4.25392L5.72759 3.73743L3.42635 0.470674L3.23563 0.199951H0.408203L1.09779 1.17923L4.15714 5.52327L4.5208 6.03921L6.97899 9.52986L7.16971 9.80027H9.99713L9.30763 8.82067ZM7.50549 9.17487L4.95178 5.54878L4.58812 5.03261L1.62469 0.824951H2.89944L5.29597 4.22778L5.65963 4.74396L8.78032 9.17487H7.50549Z" fill="#263542"/>
<path d="M4.58959 5.03259L4.95325 5.54877L4.52211 6.03912L1.21417 9.79994H0.398438L4.15845 5.52318L4.58959 5.03259Z" fill="#263542"/>
<path d="M9.65749 0.199951L6.09168 4.25392L5.66054 4.74396L5.29688 4.22778L5.72801 3.73743L8.14345 0.990007L8.84176 0.199951H9.65749Z" fill="#263542"/>
</g>
<defs>
<clipPath id="clip0_283_8051">
<rect width="9.6" height="9.6" fill="white" transform="translate(0.398438 0.199951)"/>
</clipPath>
</defs>
</svg>
