<svg width="10" height="10" viewBox="0 0 10 10" fill="none" xmlns="http://www.w3.org/2000/svg">
<g clip-path="url(#clip0_283_8049)">
<path d="M9.38772 2.37163L9.39972 2.45003C9.28372 2.03843 8.97052 1.72083 8.57252 1.60523L8.56412 1.60323C7.81572 1.40003 4.80412 1.40003 4.80412 1.40003C4.80412 1.40003 1.80012 1.39603 1.04412 1.60323C0.638518 1.72083 0.324918 2.03843 0.210918 2.44163L0.208918 2.45003C-0.0706823 3.91043 -0.0726824 5.66523 0.221318 7.22883L0.208918 7.14963C0.324918 7.56123 0.638118 7.87883 1.03612 7.99443L1.04452 7.99643C1.79212 8.20003 4.80452 8.20003 4.80452 8.20003C4.80452 8.20003 7.80812 8.20003 8.56452 7.99643C8.97052 7.87883 9.28412 7.56123 9.39812 7.15803L9.40012 7.14963C9.52732 6.47043 9.60012 5.68883 9.60012 4.89043C9.60012 4.86123 9.60012 4.83163 9.59972 4.80203C9.60012 4.77483 9.60012 4.74243 9.60012 4.71003C9.60012 3.91123 9.52732 3.12963 9.38772 2.37163ZM3.84332 6.26043V3.34323L6.34972 4.80403L3.84332 6.26043Z" fill="#263542"/>
</g>
<defs>
<clipPath id="clip0_283_8049">
<rect width="9.6" height="9.6" fill="white"/>
</clipPath>
</defs>
</svg>
