<svg width="40" height="40" viewBox="0 0 40 40" fill="none" xmlns="http://www.w3.org/2000/svg">
<rect x="0.5" y="0.5" width="39" height="39" rx="11.5" stroke="#263542"/>
<path d="M24.6362 27.2727C24.6311 27.2727 24.6259 27.2727 24.6207 27.2727C22.1363 27.1914 19.2258 24.7832 17.2205 22.7766C15.2125 20.7699 12.8043 17.8581 12.7268 15.3853C12.6984 14.5176 14.8277 12.9745 14.8497 12.959C15.4024 12.5742 16.0157 12.7111 16.2675 13.0598C16.438 13.2961 18.052 15.7417 18.2276 16.0193C18.4097 16.3073 18.3826 16.736 18.1553 17.166C17.7293 17.9785 17.7549 18.9587 18.3674 19.6417C18.6293 19.9337 18.9489 20.2735 19.3356 20.6602C19.7231 21.0472 20.0632 21.3672 20.3555 21.6294C21.0386 22.2422 22.0183 22.2678 22.831 21.8417C23.2546 21.617 23.6807 21.5886 23.9712 21.7668C24.2682 21.9488 26.7074 23.5707 26.9321 23.7269C27.1206 23.8599 27.242 24.0872 27.2665 24.3519C27.2898 24.6192 27.2071 24.902 27.0354 25.1486C27.0212 25.1693 25.4962 27.2727 24.6362 27.2727Z" fill="#263542"/>
</svg>
