<svg width="40" height="40" viewBox="0 0 40 40" fill="none" xmlns="http://www.w3.org/2000/svg">
<rect x="0.5" y="0.5" width="39" height="39" rx="11.5" stroke="#263542"/>
<path d="M20.5908 13C18.2946 13 16.4336 14.861 16.4336 17.1571C16.4336 19.1235 18.256 21.8282 19.4879 23.4307C20.0463 24.1576 21.1359 24.1576 21.6937 23.4307C22.9256 21.8282 24.7479 19.1235 24.7479 17.1571C24.7479 14.861 22.8869 13 20.5908 13ZM20.5908 15.6726C21.4111 15.6726 22.0753 16.3368 22.0753 17.1571C22.0753 17.9768 21.4104 18.6416 20.5908 18.6416C19.7711 18.6416 19.1063 17.9775 19.1063 17.1571C19.1063 16.3368 19.7704 15.6726 20.5908 15.6726ZM16.5405 22.7C15.9738 22.7 15.4642 23.0456 15.2536 23.5715L14.4227 25.6501C14.059 26.5605 14.7279 27.55 15.7083 27.55H25.4732C26.4536 27.55 27.1226 26.5605 26.7588 25.6501L25.9279 23.5715C25.7173 23.0456 25.2078 22.7 24.641 22.7H24.0551C23.6726 22.7 23.3622 23.0104 23.3622 23.3929C23.3622 23.7753 23.6726 24.0857 24.0551 24.0857H24.6424L25.2838 25.6893C25.3746 25.9172 25.207 26.1643 24.9617 26.1643H16.2198C15.9745 26.1643 15.8076 25.9172 15.8991 25.6893L16.5392 24.0857H17.1265C17.5089 24.0857 17.8193 23.7753 17.8193 23.3929C17.8193 23.0104 17.5089 22.7 17.1265 22.7H16.5405Z" fill="#263542"/>
</svg>
