<svg width="32" height="32" viewBox="0 0 32 32" fill="none" xmlns="http://www.w3.org/2000/svg">
<path d="M26.2012 32C26.1899 32 26.1785 32 26.1672 32C20.7015 31.821 14.2983 26.523 9.88658 22.1084C5.46915 17.6938 0.171075 11.2878 0.000627445 5.84768C-0.0618696 3.93866 4.6226 0.543917 4.67089 0.509828C5.88675 -0.336729 7.23612 -0.0356045 7.79008 0.731409C8.16506 1.25127 11.7161 6.63173 12.1024 7.2425C12.503 7.876 12.4433 8.81914 11.9433 9.76513C11.6678 10.2907 10.753 11.8986 10.3241 12.6485C10.7871 13.3076 12.0115 14.924 14.5398 17.4523C17.0709 19.9806 18.6845 21.2078 19.3464 21.6709C20.0964 21.2419 21.7043 20.3272 22.2298 20.0516C23.1616 19.5573 24.0991 19.4948 24.7382 19.8869C25.3916 20.2874 30.7579 23.8554 31.2522 24.1992C31.6669 24.4918 31.934 24.9918 31.9879 25.5741C32.0391 26.1622 31.8573 26.7843 31.4794 27.3269C31.4482 27.3724 28.0932 32 26.2012 32Z" fill="#8DB1B5"/>
</svg>
