<svg width="28" height="32" viewBox="0 0 28 32" fill="none" xmlns="http://www.w3.org/2000/svg">
<path d="M13.9865 0C8.93657 0 4.84362 4.09295 4.84362 9.14286C4.84362 13.4674 8.85154 19.4159 11.5609 22.9405C12.7891 24.539 15.1854 24.539 16.4121 22.9405C19.1214 19.4159 23.1293 13.4674 23.1293 9.14286C23.1293 4.09295 19.0364 0 13.9865 0ZM13.9865 5.87798C15.7907 5.87798 17.2514 7.33867 17.2514 9.14286C17.2514 10.9455 15.7891 12.4077 13.9865 12.4077C12.1838 12.4077 10.7216 10.947 10.7216 9.14286C10.7216 7.33867 12.1823 5.87798 13.9865 5.87798ZM5.07873 21.3333C3.83226 21.3333 2.71161 22.0934 2.24838 23.25L0.420996 27.8214C-0.379004 29.8237 1.09219 32 3.24838 32H24.7246C26.8808 32 28.3519 29.8237 27.5519 27.8214L25.7246 23.25C25.2613 22.0934 24.1407 21.3333 22.8942 21.3333H21.6055C20.7644 21.3333 20.0817 22.016 20.0817 22.8571C20.0817 23.6983 20.7644 24.381 21.6055 24.381H22.8972L24.3079 27.9077C24.5075 28.4091 24.139 28.9524 23.5996 28.9524H4.37338C3.83395 28.9524 3.46688 28.4091 3.66802 27.9077L5.07576 24.381H6.36742C7.20857 24.381 7.89123 23.6983 7.89123 22.8571C7.89123 22.016 7.20857 21.3333 6.36742 21.3333H5.07873Z" fill="#8DB1B5"/>
</svg>
