<svg width="14" height="14" viewBox="0 0 14 14" fill="none" xmlns="http://www.w3.org/2000/svg">
<g clip-path="url(#clip0_181_1991)">
<mask id="mask0_181_1991" style="mask-type:luminance" maskUnits="userSpaceOnUse" x="0" y="0" width="14" height="14">
<path d="M0 0H14V14H0V0Z" fill="white"/>
</mask>
<g mask="url(#mask0_181_1991)">
<path fill-rule="evenodd" clip-rule="evenodd" d="M4.22444 3.40362L4.25468 3.40676C4.38186 3.41998 4.5086 3.43316 4.63467 3.43187C5.20163 3.42608 5.74437 3.20126 6.14938 2.80447C6.23939 2.71623 6.31971 2.61729 6.40033 2.51801L6.41946 2.49441C6.52948 2.35906 6.59843 2.2744 6.65268 2.21207C6.69865 2.15925 6.71626 2.14345 6.71772 2.14213C6.88199 2.00812 7.11783 2.00812 7.2821 2.14212C7.28355 2.14342 7.30111 2.15921 7.34714 2.21207C7.40139 2.2744 7.47034 2.35906 7.58035 2.49441L7.59955 2.51802C7.6801 2.61729 7.76043 2.71624 7.85044 2.80447C8.25545 3.20126 8.79818 3.42608 9.36512 3.43187C9.49118 3.43316 9.61794 3.41998 9.7451 3.40676L9.77538 3.40362C9.94886 3.3857 10.0575 3.3746 10.1399 3.36888C10.2098 3.36403 10.2334 3.3653 10.2354 3.36542C10.4463 3.38681 10.613 3.55358 10.6345 3.76447C10.6346 3.76638 10.6359 3.78996 10.631 3.85994C10.6252 3.94237 10.6142 4.05099 10.5962 4.22449L10.5931 4.25469C10.5799 4.38188 10.5667 4.50865 10.568 4.63472C10.5738 5.20168 10.7986 5.74442 11.1954 6.1494C11.2836 6.23947 11.3826 6.31973 11.4818 6.40035L11.5054 6.41954C11.6408 6.52956 11.7255 6.59851 11.7878 6.6527C11.8404 6.69855 11.8563 6.71617 11.8577 6.71774C11.9918 6.88201 11.9918 7.11791 11.8577 7.28217C11.8563 7.28375 11.8404 7.30137 11.7878 7.34722C11.7255 7.40141 11.6408 7.47036 11.5054 7.58037L11.4819 7.59957C11.3826 7.68018 11.2836 7.76045 11.1954 7.85052C10.7986 8.25547 10.5738 8.79826 10.568 9.3652C10.5667 9.49126 10.5799 9.61802 10.5931 9.74518L10.5962 9.77546C10.6142 9.94894 10.6252 10.0576 10.631 10.14C10.6359 10.21 10.6346 10.2336 10.6345 10.2355C10.613 10.4464 10.4463 10.6131 10.2354 10.6345C10.2335 10.6346 10.21 10.6359 10.1399 10.631C10.0575 10.6253 9.94886 10.6142 9.77538 10.5963L9.7451 10.5932C9.61794 10.5799 9.49118 10.5667 9.36512 10.568C8.79818 10.5739 8.25545 10.7986 7.85044 11.1955C7.76043 11.2837 7.6801 11.3826 7.59955 11.4819L7.58035 11.5055C7.47034 11.6408 7.40139 11.7255 7.34714 11.7878C7.30135 11.8405 7.28367 11.8564 7.2821 11.8578C7.11783 11.9918 6.88199 11.9918 6.71772 11.8578C6.71615 11.8564 6.69847 11.8405 6.65268 11.7878C6.59843 11.7255 6.52948 11.6408 6.41946 11.5055L6.40033 11.4819C6.31971 11.3827 6.23945 11.2837 6.14938 11.1955C5.74437 10.7986 5.20162 10.5739 4.63467 10.568C4.50861 10.5667 4.38186 10.5799 4.25468 10.5932L4.22444 10.5963C4.05094 10.6142 3.94232 10.6253 3.85989 10.631C3.78988 10.6359 3.76631 10.6346 3.76442 10.6345C3.55353 10.6131 3.38676 10.4463 3.36537 10.2354C3.36525 10.2334 3.36398 10.2098 3.36883 10.14C3.37455 10.0576 3.38565 9.94894 3.40357 9.77546L3.4067 9.74518C3.41993 9.61802 3.43311 9.49126 3.43182 9.3652C3.42602 8.79826 3.20121 8.25547 2.80441 7.85052C2.71619 7.76045 2.61725 7.68018 2.51798 7.59957L2.49436 7.58037C2.35901 7.47036 2.27435 7.40141 2.21202 7.34722C2.15916 7.30119 2.14337 7.28357 2.14207 7.28212C2.00807 7.11791 2.00807 6.88201 2.14207 6.7178C2.14337 6.71634 2.15916 6.69872 2.21202 6.6527C2.27435 6.59851 2.35901 6.52956 2.49436 6.41954L2.51796 6.40035C2.61724 6.31979 2.71618 6.23947 2.80441 6.1494C3.20121 5.74442 3.42602 5.20168 3.43182 4.63472C3.43311 4.50865 3.41993 4.38191 3.4067 4.25473L3.40357 4.22449C3.38565 4.05099 3.37455 3.94237 3.36883 3.85994C3.36398 3.79009 3.36525 3.76647 3.36537 3.76448C3.38676 3.55358 3.55353 3.38681 3.76443 3.36542C3.76642 3.3653 3.79005 3.36403 3.85989 3.36888C3.94232 3.3746 4.05094 3.3857 4.22444 3.40362ZM2.14207 7.28212C2.14204 7.28212 2.14208 7.28212 2.14207 7.28212V7.28212ZM3.76442 10.6345C3.76435 10.6345 3.76443 10.6345 3.76442 10.6345V10.6345ZM7.2821 11.8578C7.28198 11.8579 7.28221 11.8577 7.2821 11.8578V11.8578ZM10.2354 3.36542C10.2354 3.36542 10.2355 3.36542 10.2354 3.36542V3.36542ZM5.74046 1.94252C5.95302 1.68103 6.05931 1.55026 6.16332 1.46516C6.65005 1.06711 7.34976 1.06711 7.8365 1.46516C7.9405 1.55026 8.04679 1.68101 8.25935 1.9425C8.3594 2.06555 8.40939 2.1271 8.46282 2.17945C8.70648 2.41818 9.03297 2.55343 9.3741 2.55692C9.44889 2.55768 9.52775 2.54954 9.68549 2.53325C10.0207 2.49863 10.1883 2.48132 10.3221 2.49472C10.9476 2.5574 11.4425 3.0522 11.5051 3.67781C11.5186 3.81156 11.5012 3.97916 11.4666 4.31437C11.4503 4.4721 11.4422 4.55097 11.443 4.62578C11.4465 4.96687 11.5817 5.2934 11.8204 5.53705C11.8728 5.59048 11.9343 5.64049 12.0573 5.7405C12.3188 5.95303 12.4496 6.05933 12.5347 6.1634C12.9327 6.65007 12.9327 7.34984 12.5347 7.83652C12.4496 7.94058 12.3188 8.04687 12.0573 8.25938C11.9343 8.35936 11.8728 8.40941 11.8204 8.46284C11.5817 8.7065 11.4465 9.03305 11.443 9.37412C11.4422 9.44897 11.4503 9.52783 11.4666 9.68557C11.5012 10.0208 11.5186 10.1883 11.5051 10.3221C11.4425 10.9477 10.9476 11.4425 10.3221 11.5052C10.1883 11.5186 10.0207 11.5013 9.68549 11.4667C9.52775 11.4504 9.44889 11.4422 9.3741 11.443C9.03297 11.4465 8.70648 11.5818 8.46282 11.8205C8.40939 11.8728 8.3594 11.9343 8.25935 12.0573C8.04679 12.3189 7.9405 12.4496 7.8365 12.5347C7.34976 12.9328 6.65005 12.9328 6.16332 12.5347C6.05931 12.4496 5.95303 12.3189 5.74047 12.0574C5.6405 11.9344 5.59042 11.8728 5.537 11.8205C5.29335 11.5818 4.96682 11.4465 4.62573 11.443C4.55092 11.4422 4.47205 11.4504 4.31431 11.4667C3.97911 11.5013 3.81151 11.5186 3.67776 11.5052C3.05215 11.4425 2.55735 10.9477 2.49467 10.3221C2.48127 10.1883 2.49858 10.0208 2.5332 9.68557C2.54948 9.52783 2.55763 9.44897 2.55686 9.37412C2.55338 9.03305 2.41813 8.7065 2.17941 8.46284C2.12705 8.40941 2.06553 8.35942 1.94248 8.25943C1.68098 8.04692 1.55021 7.94058 1.46511 7.83652C1.06706 7.34984 1.06706 6.65007 1.46511 6.1634C1.55021 6.05933 1.68096 5.95305 1.94246 5.74052C2.06551 5.64051 2.12705 5.59049 2.17941 5.53705C2.41813 5.2934 2.55338 4.96687 2.55686 4.62578C2.55763 4.55097 2.54948 4.4721 2.5332 4.31437C2.49858 3.97917 2.48127 3.81156 2.49467 3.67781C2.55735 3.0522 3.05215 2.5574 3.67776 2.49472C3.81151 2.48132 3.97911 2.49863 4.3143 2.53325C4.47203 2.54954 4.55092 2.55768 4.62573 2.55692C4.96682 2.55343 5.29335 2.41818 5.537 2.17945C5.59044 2.1271 5.64044 2.06557 5.74046 1.94252ZM9.05934 6.14263C9.2302 5.97177 9.2302 5.69479 9.05934 5.52393C8.88848 5.35308 8.61151 5.35308 8.44065 5.52393L6.41666 7.54788L5.55936 6.69062C5.3885 6.51976 5.11149 6.51976 4.94064 6.69062C4.76978 6.86147 4.76978 7.13844 4.94064 7.3093L6.10732 8.47597C6.27818 8.64682 6.55515 8.64682 6.726 8.47597L9.05934 6.14263Z" fill="white"/>
</g>
</g>
<defs>
<clipPath id="clip0_181_1991">
<rect width="14" height="14" fill="white"/>
</clipPath>
</defs>
</svg>
