<svg width="22" height="22" viewBox="0 0 22 22" fill="none" xmlns="http://www.w3.org/2000/svg">
<path d="M11 6.36731C8.44575 6.36731 6.36765 8.44542 6.36765 10.9998C6.36765 13.5543 8.44575 15.6324 11 15.6324C13.5542 15.6324 15.6323 13.5543 15.6323 10.9998C15.6323 8.44542 13.5542 6.36731 11 6.36731ZM11 14.8808C8.85998 14.8808 7.11911 13.14 7.11911 10.9998C7.11911 8.85972 8.85998 7.11885 11 7.11885C13.1399 7.11885 14.8808 8.85972 14.8808 10.9998C14.8807 13.14 13.1399 14.8808 11 14.8808Z" fill="#D75140" stroke="#D75140" stroke-width="0.4"/>
<path d="M20.6635 12.7019C19.7913 12.6098 19.1335 11.8784 19.1335 10.9999C19.1335 10.1214 19.7913 9.39004 20.6635 9.29793C20.7696 9.28692 20.866 9.23114 20.9285 9.14491C20.9911 9.05867 21.014 8.94968 20.9916 8.84547C20.7329 7.64 20.2605 6.50058 19.5872 5.45914C19.5294 5.3696 19.4363 5.30905 19.3309 5.29217C19.2265 5.27492 19.1184 5.30355 19.0353 5.37107C18.3537 5.92188 17.3717 5.86904 16.7512 5.24887C16.1307 4.62797 16.0781 3.64598 16.629 2.96453C16.6959 2.88159 16.7246 2.77407 16.7077 2.66876C16.691 2.5638 16.6303 2.4706 16.5407 2.41262C15.4999 1.73961 14.3604 1.26696 13.1545 1.00825C13.049 0.986233 12.9412 1.00862 12.8551 1.07137C12.7689 1.13375 12.7131 1.23026 12.7019 1.33631C12.6102 2.20858 11.8785 2.86655 11 2.86655C10.1214 2.86655 9.38973 2.20858 9.29799 1.33631C9.28676 1.23026 9.23098 1.13375 9.14474 1.07137C9.05836 1.00898 8.95076 0.986967 8.8453 1.00825C7.63931 1.26696 6.50004 1.73961 5.45934 2.41262C5.3698 2.4706 5.30903 2.5638 5.29237 2.66876C5.27549 2.77407 5.30411 2.88159 5.37112 2.96453C5.92193 3.64598 5.86923 4.62834 5.24877 5.24887C4.62802 5.86904 3.64551 5.92114 2.96465 5.37107C2.88172 5.30355 2.7731 5.27492 2.66903 5.29217C2.56371 5.30905 2.4705 5.3696 2.41274 5.45914C1.73958 6.50058 1.26708 7.64 1.00837 8.84547C0.98599 8.94968 1.00896 9.05867 1.07149 9.14491C1.1341 9.23114 1.23039 9.28692 1.33644 9.29793C2.20871 9.39004 2.86667 10.1214 2.86667 10.9999C2.86667 11.8784 2.20871 12.6098 1.33644 12.7019C1.23039 12.7129 1.1341 12.7687 1.07149 12.8549C1.00896 12.9411 0.98599 13.0501 1.00837 13.1543C1.26708 14.3598 1.73958 15.4992 2.41274 16.5407C2.4705 16.6302 2.56371 16.6908 2.66903 16.7076C2.77302 16.7256 2.88172 16.6963 2.96465 16.6287C3.64588 16.0772 4.62809 16.1304 5.24877 16.7509C5.86931 17.3715 5.92193 18.3538 5.37112 19.0353C5.30411 19.1182 5.27556 19.2257 5.29237 19.3311C5.30903 19.436 5.3698 19.5292 5.45934 19.5872C6.50004 20.2602 7.63924 20.7328 8.8453 20.9916C8.9501 21.0128 9.0585 20.9912 9.14474 20.9284C9.23098 20.8661 9.28676 20.7695 9.29799 20.6635C9.38973 19.7912 10.1214 19.1333 11 19.1333C11.8785 19.1333 12.6102 19.7912 12.7019 20.6635C12.7131 20.7695 12.7689 20.8661 12.8551 20.9284C12.9199 20.9754 12.9971 21 13.0756 21C13.1018 21 13.1283 20.9971 13.1545 20.9916C14.3604 20.7328 15.4998 20.2602 16.5407 19.5872C16.6303 19.5292 16.691 19.436 16.7077 19.3311C16.7246 19.2257 16.6959 19.1182 16.629 19.0353C16.078 18.3538 16.1307 17.3718 16.7512 16.7509C17.3717 16.1304 18.3541 16.0779 19.0353 16.6287C19.1185 16.6963 19.2265 16.7256 19.3309 16.7076C19.4362 16.6908 19.5294 16.6302 19.5872 16.5407C20.2605 15.4992 20.7329 14.3598 20.9916 13.1543C21.014 13.0501 20.9911 12.9411 20.9285 12.8549C20.8659 12.7687 20.7696 12.7129 20.6635 12.7019ZM19.1573 15.8071C18.2115 15.2791 17.0113 15.4284 16.2198 16.2196C15.4282 17.0111 15.279 18.2115 15.8073 19.1575C15.0429 19.6092 14.2257 19.9483 13.3694 20.1688C13.0747 19.1256 12.1202 18.3817 10.9999 18.3817C9.87955 18.3817 8.92508 19.1256 8.63041 20.1688C7.77414 19.9483 6.95691 19.6092 6.19267 19.1575C6.72095 18.2115 6.57138 17.0111 5.78006 16.2196C4.98852 15.4284 3.78819 15.2791 2.84253 15.8071C2.39043 15.0427 2.05136 14.2251 1.83103 13.3694C2.87431 13.0743 3.61814 12.1202 3.61814 10.9999C3.61814 9.87957 2.87431 8.92547 1.83103 8.63043C2.05143 7.77467 2.39043 6.95708 2.84253 6.1927C3.78841 6.72112 4.98889 6.57177 5.78006 5.78023C6.5716 4.98869 6.72095 3.78836 6.19267 2.84233C6.95684 2.3906 7.77406 2.05152 8.63041 1.83098C8.92508 2.87425 9.87955 3.61809 10.9999 3.61809C12.1202 3.61809 13.0747 2.87425 13.3694 1.83098C14.2256 2.05152 15.0429 2.3906 15.8073 2.84233C15.279 3.78836 15.4284 4.98869 16.2198 5.78023C17.0117 6.57177 18.2118 6.72112 19.1573 6.1927C19.6094 6.95708 19.9485 7.77467 20.1689 8.63043C19.1256 8.92547 18.3819 9.87957 18.3819 10.9999C18.3819 12.1202 19.1256 13.0743 20.1689 13.3694C19.9485 14.2251 19.6094 15.0427 19.1573 15.8071Z" fill="#D75140" stroke="#D75140" stroke-width="0.4"/>
</svg>
