<svg width="48" height="48" viewBox="0 0 48 48" fill="none" xmlns="http://www.w3.org/2000/svg">
<circle cx="24" cy="24" r="23.5" stroke="#8DB1B5"/>
<path d="M32.0002 32.0002V26.1402C32.0002 23.2602 31.3802 21.0602 28.0202 21.0602C26.4002 21.0602 25.3202 21.9402 24.8802 22.7802H24.8402V21.3202H21.6602V32.0002H24.9802V26.7002C24.9802 25.3002 25.2402 23.9602 26.9602 23.9602C28.6602 23.9602 28.6802 25.5402 28.6802 26.7802V31.9802H32.0002V32.0002Z" fill="#8DB1B5"/>
<path d="M16.2598 21.3201H19.5798V32.0001H16.2598V21.3201Z" fill="#8DB1B5"/>
<path d="M17.92 16C16.86 16 16 16.86 16 17.92C16 18.98 16.86 19.86 17.92 19.86C18.98 19.86 19.84 18.98 19.84 17.92C19.84 16.86 18.98 16 17.92 16Z" fill="#8DB1B5"/>
</svg>
